PathFileType	4	(X/Y/Z)	Patient4_TMGait_0pt7_02_left_20.trc.trc
DataRate	CameraRate	NumFrames	NumMarkers	Units	OrigDataRate	OrigDataStartFrame	OrigNumFrames
84.848484848485	84.848484848485	4	33	mm	84.848484848485	18	       141
Frame#	Time	Sacral			L.Shoulder			Chest			R.Shoulder			Neck			R.ASIS			L.ASIS			R.Thigh.Superior			R.Thigh.Lateral			R.Thigh.Inferior			R.Patella			L.Thigh.Superior			L.Thigh.Lateral			L.Thigh.Inferior			L.Patella			L.Shank.Superior			L.Shank.Lateral			L.Shank.Inferior			R.Shank.Superior			R.Shank.Lateral			R.Shank.Inferior			R.Heel			R.Midfoot.Superior			R.Midfoot.Lateral			R.Toe			L.Heel			L.Midfoot.Lateral			L.Midfoot.Superior			L.Toe			L.Elbow			L.Wrist			R.Elbow			R.Wrist			
		X1	Y1	Z1	X2	Y2	Z2	X3	Y3	Z3	X4	Y4	Z4	X5	Y5	Z5	X6	Y6	Z6	X7	Y7	Z7	X8	Y8	Z8	X9	Y9	Z9	X10	Y10	Z10	X11	Y11	Z11	X12	Y12	Z12	X13	Y13	Z13	X14	Y14	Z14	X15	Y15	Z15	X16	Y16	Z16	X17	Y17	Z17	X18	Y18	Z18	X19	Y19	Z19	X20	Y20	Z20	X21	Y21	Z21	X22	Y22	Z22	X23	Y23	Z23	X24	Y24	Z24	X25	Y25	Z25	X26	Y26	Z26	X27	Y27	Z27	X28	Y28	Z28	X29	Y29	Z29	X30	Y30	Z30	X31	Y31	Z31	X32	Y32	Z32	X33	Y33	Z33	

18	22.850357142857	834.230717641933	1009.691029396575	539.229683464183	1004.014628135835	1424.017399748159	332.911141799631	1130.569444873815	1343.935953062960	472.016715597805	1089.747885294511	1428.584929663617	656.030044916151	1042.165433175564	1484.349813268988	484.486991168923	1064.499354934206	937.911098729412	637.475822568532	1029.835368379103	950.413301115002	362.083232121270	1059.360169790858	726.201869945041	612.566291981930	954.246100160601	633.444894678526	674.640375943259	1013.429161803366	568.139157161469	593.907869848940	996.042277411113	485.093305186305	597.746338196508	1112.909562957155	788.511043658936	396.899556071253	1086.520392229468	658.192700917596	308.274034246461	1194.090519870372	608.707347634837	372.360604749407	1229.795482172009	544.035558279091	365.600349192478	1214.516361794467	468.651568511561	354.370731623004	1152.950585118178	339.564350143239	294.510442064969	1239.358139411710	239.438071571823	349.161044882337	961.056915262199	401.114095334849	602.962176444171	883.682958118933	301.170073388824	663.717320167628	919.390355909215	205.506710955741	595.836551321946	777.736129182057	43.163980841673	560.157535135744	949.514160716387	97.110324994442	598.085287827067	860.588802822042	36.373106312845	634.403779105631	1069.071589720619	43.485627557261	624.615867591328	1158.910345663679	56.426228402966	378.117442221412	1236.573564666154	63.937759162368	301.711233812608	1303.891844403528	143.455465853661	326.680612488030	1439.353854797534	119.371025472670	306.095192818578	832.249882641894	1114.391279681351	247.142744387540	776.068413427720	860.518139588291	262.648131112744	1234.858579362753	1121.622967947138	765.646401458794	1459.610396090846	1152.725701007174	648.054263097631	
19	22.862142857143	835.041156915721	1007.891939363367	537.496006120393	1003.245510877463	1422.757106878806	331.371341364549	1129.940973718350	1343.023472805541	470.474962853291	1088.677749231051	1427.507336059291	654.339905297384	1041.111517874693	1483.035717675712	483.015413914840	1065.014582244449	936.709322628952	636.554243243109	1031.245499413948	948.251986632819	360.964936352171	1058.411999548091	724.558661013337	611.834519880181	952.453604650569	632.472616796976	673.975599022199	1010.745877883693	566.777769539784	593.069977653718	992.525677526077	483.535773171380	596.908500198898	1113.048375377730	784.520545754230	396.286056258100	1084.668985161840	654.137517576436	308.080397098705	1191.534091304692	603.584735884439	372.236383380377	1226.400674289940	539.458688518020	365.988903729914	1211.838278186735	464.683876725415	354.636852801021	1151.600408695829	334.656351819147	295.711437168332	1239.591991511219	235.900489500632	350.376187517703	956.556757666593	399.807703549526	602.367769279248	878.301853794360	300.765988344763	663.445795339412	912.473959429158	204.696113648259	595.488734786117	769.397330621806	43.047843084890	560.186521846629	941.014490061460	96.838153182224	597.831730080258	852.225726709029	36.298018300391	634.478135992307	1060.721456415508	43.376402702220	624.611187530918	1161.568994865507	52.435581667801	380.234879492425	1239.008317961409	60.216386220196	303.643964016790	1305.707360047976	140.223874993556	328.199004763384	1441.342089191001	117.056481358573	307.524993928644	825.635579460579	1117.232624797052	246.566640171670	764.953780190024	864.493087432423	264.637042021830	1241.445785694597	1124.735693928105	760.631268276101	1461.199817495607	1171.456983120289	640.070146658991	
20	22.873928571429	836.002242783725	1005.949788149891	535.503523386776	1002.548381732321	1421.418309765529	329.658416345263	1129.370339838168	1342.148279131885	468.827443720270	1087.496813905535	1426.419799888218	652.514835616971	1040.032580708831	1481.675346281514	481.370471549894	1065.726279789540	935.375733603367	635.448226251464	1032.893578225139	946.056187627420	359.730475448707	1057.987999148920	722.838009768423	610.861512731818	951.321811817617	631.307733852227	673.057992628715	1008.826771112527	565.257532998031	591.995153593376	989.719386249951	481.749997574115	595.805990269039	1113.575120531746	780.473848227151	395.553512537127	1083.053007799485	650.022452958444	308.057884943298	1189.236719379966	598.462807322005	372.249825641677	1223.069499086349	534.509814836655	366.507218191433	1208.822080251001	460.260033680863	355.024619786926	1148.929124102617	329.697024577679	297.372090943282	1237.946068913135	231.827682099118	351.944616262099	952.709660772698	398.272973306054	601.542287904374	873.411448825276	300.295048271441	663.007830991281	905.816022519544	203.760963991611	595.036539120967	761.084201624194	42.964282908524	560.221990989180	932.551470957073	96.554521746011	597.546653884372	843.890747146292	36.230491310379	634.562274534702	1052.398129774315	43.189767190522	624.613981699168	1161.122611992131	48.758729879144	382.998879292785	1238.100137949192	56.333471487020	305.963396597690	1304.901685090451	136.105958848768	330.044230964843	1440.383149341963	112.703984358365	308.776937728232	819.692933420064	1119.773302909550	246.041202907145	754.966139665959	868.089545944520	266.480007447582	1247.391644617544	1127.824021278153	755.530229655306	1461.418117055423	1189.061065125477	632.476275125057	
21	22.885714285714	837.095532232145	1003.907135938909	533.282327218580	1001.943460914032	1420.020287756496	327.766550242913	1128.876448217277	1341.323720431696	467.068232525710	1086.242538968356	1425.345625883696	650.553735025729	1038.957018253620	1480.293835531159	479.538408332730	1066.623753005920	933.929679062669	634.154856888475	1034.736351661150	943.892818078803	358.374582744789	1058.070896302408	721.052318187313	609.663554143313	950.797811287790	629.969955437886	671.877044532965	1007.640875957070	563.579708161621	590.704124691226	987.590616920525	479.738600657552	594.442646546929	1114.466714640882	776.468311202703	394.685764007611	1081.661814841213	645.948342201075	308.192902949363	1187.229926629801	593.490133827517	372.394834129243	1219.855052841244	529.362829653205	367.187422216717	1205.598672429822	455.546633326029	355.540598329094	1145.249460079354	324.796772676469	299.323328881015	1234.746671705765	227.352936876450	353.765586590031	949.466486729163	396.528702334543	600.474382996709	868.969856225489	299.782302675136	662.392662468687	899.402293873933	202.734141198953	594.483468239225	752.798624516549	42.947867976387	560.267521179579	924.146744959866	96.283227773232	597.247730023711	835.589453672818	36.185752691752	634.655403222001	1044.108349254168	42.919378861063	624.627555356949	1157.938581924915	45.466181905627	386.117484997805	1234.315584869281	52.416142390885	308.464697744804	1301.898781279153	131.235896592556	332.144000044208	1436.954737304196	106.482796256579	309.922476281960	814.506157461160	1121.926191207971	245.542348360945	746.117904062173	871.238364935222	268.121967075877	1252.664368038265	1130.829140916920	750.426384055590	1460.406084862516	1205.428690227252	625.293611782709	
